<svg width="51" height="50" viewBox="0 0 51 50" fill="none" xmlns="http://www.w3.org/2000/svg">
<rect x="0.5" width="50" height="50" rx="25" fill="url(#paint0_linear_4819_2277)"/>
<path d="M25.3395 37.3182C23.5062 37.3182 21.8774 37.0038 20.4531 36.375C19.0365 35.7386 17.9228 34.8636 17.1122 33.75C16.3016 32.6364 15.8925 31.3561 15.8849 29.9091H22.2486C22.2562 30.3561 22.3925 30.7576 22.6577 31.1136C22.9304 31.4621 23.3016 31.7348 23.7713 31.9318C24.241 32.1288 24.7789 32.2273 25.3849 32.2273C25.9683 32.2273 26.4834 32.125 26.9304 31.9205C27.3774 31.7083 27.7259 31.4167 27.9759 31.0455C28.2259 30.6742 28.3471 30.25 28.3395 29.7727C28.3471 29.303 28.2031 28.8864 27.9077 28.5227C27.6198 28.1591 27.2145 27.875 26.6918 27.6705C26.169 27.4659 25.5668 27.3636 24.8849 27.3636H22.5213V23H24.8849C25.5137 23 26.0668 22.8977 26.544 22.6932C27.0289 22.4886 27.4039 22.2045 27.669 21.8409C27.9418 21.4773 28.0743 21.0606 28.0668 20.5909C28.0743 20.1364 27.9645 19.7348 27.7372 19.3864C27.5099 19.0379 27.1918 18.7652 26.7827 18.5682C26.3812 18.3712 25.9152 18.2727 25.3849 18.2727C24.8092 18.2727 24.294 18.375 23.8395 18.5795C23.3925 18.7841 23.0402 19.0682 22.7827 19.4318C22.5251 19.7955 22.3925 20.2121 22.3849 20.6818H16.3395C16.3471 19.2576 16.7372 18 17.5099 16.9091C18.2902 15.8182 19.3584 14.9621 20.7145 14.3409C22.0705 13.7197 23.6274 13.4091 25.3849 13.4091C27.1046 13.4091 28.6236 13.7008 29.9418 14.2841C31.2675 14.8674 32.3016 15.6705 33.044 16.6932C33.794 17.7083 34.1652 18.8712 34.1577 20.1818C34.1728 21.4848 33.7259 22.553 32.8168 23.3864C31.9152 24.2197 30.7713 24.7121 29.3849 24.8636V25.0455C31.2637 25.25 32.6766 25.8258 33.6236 26.7727C34.5706 27.7121 35.0365 28.8939 35.0213 30.3182C35.0289 31.6818 34.6198 32.8902 33.794 33.9432C32.9759 34.9962 31.8357 35.822 30.3736 36.4205C28.919 37.0189 27.241 37.3182 25.3395 37.3182Z" fill="white"/>
<defs>
<linearGradient id="paint0_linear_4819_2277" x1="1.27138" y1="30.5576" x2="49.4317" y2="30.5576" gradientUnits="userSpaceOnUse">
<stop stop-color="#E6793B"/>
<stop offset="1" stop-color="#FF4185"/>
</linearGradient>
</defs>
</svg>
