<svg width="32" height="32" viewBox="0 0 32 32" fill="none" xmlns="http://www.w3.org/2000/svg">
<path d="M10.7887 27C7.55374 27 4.53817 26.0591 2 24.4356C4.15499 24.5751 7.95807 24.2411 10.3236 21.9848C6.76508 21.8215 5.16026 19.0923 4.95094 17.926C5.25329 18.0426 6.6953 18.1826 7.50934 17.856C3.4159 16.8296 2.78793 13.2373 2.92748 12.141C3.695 12.6775 4.99745 12.8641 5.50913 12.8174C1.69479 10.0882 3.06703 5.98276 3.74151 5.09635C6.47882 8.88867 10.5812 11.0186 15.6564 11.137C15.5607 10.7174 15.5102 10.2804 15.5102 9.83164C15.5102 6.61092 18.1134 4 21.3247 4C23.0025 4 24.5144 4.71275 25.5757 5.85284C26.6969 5.59011 28.3843 4.97507 29.2092 4.4432C28.7934 5.93611 27.4989 7.18149 26.7159 7.64308C26.7095 7.62731 26.7224 7.65878 26.7159 7.64308C27.4037 7.53904 29.2648 7.18137 30 6.68256C29.6364 7.52125 28.264 8.91573 27.1377 9.69642C27.3473 18.9381 20.2765 27 10.7887 27Z" fill="#DA7D4A"/>
</svg>
