<svg width="24" height="24" viewBox="0 0 24 24" fill="none" xmlns="http://www.w3.org/2000/svg">
<path d="M21 4C22.1046 4 23 4.89543 23 6V18C23 19.1046 22.1046 20 21 20H5C3.89543 20 3 19.1046 3 18V17H5V18H21V7.4226L14.0648 14.3578C13.479 14.9436 12.5293 14.9436 11.9435 14.3578L5 7.41431V8H3V6C3 4.89543 3.89543 4 5 4H21Z" fill="#334155"/>
<path d="M7 11C7 10.4477 6.55228 10 6 10H3C2.44772 10 2 10.4477 2 11C2 11.5523 2.44772 12 3 12H6C6.55228 12 7 11.5523 7 11Z" fill="#DA7D4A"/>
<path d="M7 14C7 13.4477 6.55228 13 6 13H3C2.44772 13 2 13.4477 2 14C2 14.5523 2.44772 15 3 15H6C6.55228 15 7 14.5523 7 14Z" fill="#DA7D4A"/>
</svg>
