<svg width="24" height="24" viewBox="0 0 24 24" fill="none" xmlns="http://www.w3.org/2000/svg">
<path d="M8 13C9.05436 13 9.91817 13.8159 9.99451 14.8507L10 15V18C10 19.0544 9.18412 19.9182 8.14926 19.9945L8 20H5C3.94564 20 3.08183 19.1841 3.00549 18.1493L3 18V15C3 13.9456 3.81588 13.0818 4.85074 13.0055L5 13H8ZM8 3C9.10457 3 10 3.89543 10 5V8C10 9.10457 9.10457 10 8 10H5C3.89543 10 3 9.10457 3 8V5C3 3.89543 3.89543 3 5 3H8Z" fill="#334155"/>
<path d="M18 18C18 17.4477 17.5523 17 17 17H13L12.8834 17.0067C12.386 17.0645 12 17.4872 12 18C12 18.5523 12.4477 19 13 19H17L17.1166 18.9933C17.614 18.9355 18 18.5128 18 18Z" fill="#DA7D4A"/>
<path d="M22 14C22 13.4477 21.5523 13 21 13H13C12.4477 13 12 13.4477 12 14C12 14.5523 12.4477 15 13 15H21C21.5523 15 22 14.5523 22 14Z" fill="#DA7D4A"/>
<path d="M18 8C18 7.44772 17.5523 7 17 7H13L12.8834 7.00673C12.386 7.06449 12 7.48717 12 8C12 8.55228 12.4477 9 13 9H17L17.1166 8.99327C17.614 8.93551 18 8.51283 18 8Z" fill="#DA7D4A"/>
<path d="M22 4C22 3.44772 21.5523 3 21 3H13L12.8834 3.00673C12.386 3.06449 12 3.48717 12 4C12 4.55228 12.4477 5 13 5H21L21.1166 4.99327C21.614 4.93551 22 4.51283 22 4Z" fill="#DA7D4A"/>
</svg>
