<svg width="32" height="32" viewBox="0 0 32 32" fill="none" xmlns="http://www.w3.org/2000/svg">
<path d="M30 13.4979C30 7.15791 23.7199 1.99999 15.9999 1.99999C8.28094 1.99999 2 7.15791 2 13.4979C2 19.1816 6.98063 23.9416 13.7084 24.8418C14.1644 24.9412 14.7849 25.146 14.9419 25.5404C15.0831 25.8986 15.0342 26.4598 14.987 26.8216C14.987 26.8216 14.8227 27.8214 14.7873 28.0343C14.7264 28.3926 14.5061 29.4353 15.9999 28.7981C17.4942 28.1609 24.0626 23.9935 26.9998 20.572C29.0287 18.3204 30 16.0353 30 13.4979Z" fill="#DA7D4A"/>
<path d="M13.1555 10.4244H12.1735C12.0229 10.4244 11.9005 10.5478 11.9005 10.6995V16.866C11.9005 17.0179 12.0229 17.1411 12.1735 17.1411H13.1555C13.306 17.1411 13.4281 17.0179 13.4281 16.866V10.6995C13.4281 10.5478 13.306 10.4244 13.1555 10.4244Z" fill="white"/>
<path d="M19.9146 10.4244H18.9326C18.7821 10.4244 18.66 10.5478 18.66 10.6995V14.3631L15.8645 10.5467C15.8128 10.4683 15.7289 10.4295 15.6374 10.4244H14.6557C14.5051 10.4244 14.3828 10.5478 14.3828 10.6995V16.866C14.3828 17.0179 14.5051 17.1411 14.6557 17.1411H15.6374C15.7883 17.1411 15.9104 17.0179 15.9104 16.866V13.2035L18.7093 17.0247C18.7596 17.0967 18.8449 17.1411 18.9326 17.1411H19.9146C20.0655 17.1411 20.1873 17.0179 20.1873 16.866V10.6995C20.1873 10.5478 20.0655 10.4244 19.9146 10.4244Z" fill="white"/>
<path d="M10.7883 15.597H8.12004V10.6999C8.12004 10.5477 7.99793 10.4242 7.84764 10.4242H6.86536C6.7148 10.4242 6.59268 10.5477 6.59268 10.6999V16.8653C6.59268 17.015 6.71426 17.1412 6.86509 17.1412H10.7883C10.9389 17.1412 11.0604 17.0175 11.0604 16.8653V15.8727C11.0604 15.7205 10.9389 15.597 10.7883 15.597Z" fill="white"/>
<path d="M25.3376 11.9684C25.4882 11.9684 25.6097 11.8453 25.6097 11.6928V10.7001C25.6097 10.5479 25.4882 10.4242 25.3376 10.4242H21.4147C21.264 10.4242 21.142 10.5502 21.142 10.6999V16.8656C21.142 17.0148 21.2637 17.1412 21.4141 17.1412H25.3376C25.4882 17.1412 25.6097 17.0175 25.6097 16.8656V15.8727C25.6097 15.7207 25.4882 15.597 25.3376 15.597H22.6696V14.5547H25.3376C25.4882 14.5547 25.6097 14.4313 25.6097 14.2791V13.2864C25.6097 13.1342 25.4882 13.0105 25.3376 13.0105H22.6696V11.9684H25.3376Z" fill="white"/>
</svg>
