<svg width="24" height="24" viewBox="0 0 24 24" fill="none" xmlns="http://www.w3.org/2000/svg">
<path d="M11 2C15.1825 2 18.6986 4.85296 19.7084 8.71896C18.7357 8.25792 17.648 8 16.5 8C12.3579 8 9 11.3579 9 15.5C9 17.182 9.55369 18.7347 10.4887 19.9857C8.99774 19.9021 7.60187 19.455 6.39052 18.7314L3.74127 19.5106C2.97559 19.7358 2.26419 19.0244 2.48939 18.2587L3.26858 15.6095C2.46288 14.2606 2 12.683 2 11C2 6.02944 6.02944 2 11 2Z" fill="#334155"/>
<path d="M22 15.5C22 12.4624 19.5376 10 16.5 10C13.4624 10 11 12.4624 11 15.5C11 18.5376 13.4624 21 16.5 21C17.4586 21 18.3622 20.754 19.1484 20.3213L20.459 20.7068C21.2222 20.9312 21.9312 20.2222 21.7068 19.459L21.3213 18.1484C21.754 17.3622 22 16.4586 22 15.5Z" fill="#DA7D4A"/>
</svg>
